<svg id="icon-sailboat" xmlns="http://www.w3.org/2000/svg" width="24" height="24" viewBox="0 0 24 24">
  <rect id="Rectangle_427" data-name="Rectangle 427" width="24" height="24" fill="none"/>
  <path id="Shape" d="M10.64,12.236v-8.8a.483.483,0,0,0-.874-.271l-6.278,8.8a.471.471,0,0,0,.394.739H10.16A.469.469,0,0,0,10.64,12.236Zm9.59-.019c-.259-5.528-4.886-9.971-7.286-10.99a.478.478,0,0,0-.643.552,20.993,20.993,0,0,1,.73,5.313,17.18,17.18,0,0,1-.749,5,.472.472,0,0,0,.461.608h6.989A.489.489,0,0,0,20.23,12.218Zm-.355,1.889H3.325a.946.946,0,0,0-.883,1.328A5.815,5.815,0,0,0,4.227,17.6a4.551,4.551,0,0,0,1.018-.589.958.958,0,0,1,1.181,0,3.778,3.778,0,0,0,2.294.842A3.73,3.73,0,0,0,11.014,17a.971.971,0,0,1,1.171,0,3.73,3.73,0,0,0,2.294.851A3.73,3.73,0,0,0,16.774,17a.972.972,0,0,1,1.181,0,3.779,3.779,0,0,0,1.018.589,5.815,5.815,0,0,0,1.786-2.161A.941.941,0,0,0,19.875,14.107ZM21.2,20.654a.951.951,0,0,0-.96-.935h0a4.952,4.952,0,0,1-2.429-.655.937.937,0,0,0-.9,0,4.987,4.987,0,0,1-4.858,0,.963.963,0,0,0-.9,0,4.987,4.987,0,0,1-4.858,0,.963.963,0,0,0-.9,0,4.952,4.952,0,0,1-2.429.655h0a.936.936,0,1,0,0,1.871h0a6.232,6.232,0,0,0,3.2-.879,5.507,5.507,0,0,0,5.357.131,6.248,6.248,0,0,0,5.846.047h0a6.286,6.286,0,0,0,2.88.7h0A.951.951,0,0,0,21.2,20.654Z" transform="translate(0.399 0.609)" fill="#5a33ff"/>
</svg>
