<svg id="icon-captain" xmlns="http://www.w3.org/2000/svg" width="24" height="24" viewBox="0 0 24 24">
  <rect id="Rectangle_372" data-name="Rectangle 372" width="24" height="24" fill="none"/>
  <path id="Shape" d="M10.7,4C8.822,4,.5,6.31.5,8.875c0,1.2.948,2.346,2.661,3.256v1.132a.527.527,0,0,0,.036.193,1.077,1.077,0,0,0,.353.431c-.016.052-.022.087-.041.148a3.945,3.945,0,0,0,.15,3.41C4.607,18.9,6.91,19.6,10.7,19.6s6.094-.7,7.041-2.144a3.945,3.945,0,0,0,.154-3.4c-.02-.066-.027-.105-.044-.161a1.145,1.145,0,0,0,.349-.431.531.531,0,0,0,.04-.2V12.148c1.713-.906,2.661-2.058,2.661-3.272C20.9,6.31,12.578,4,10.7,4ZM8.926,7.9a.467.467,0,0,1,.443.487c0,.1.319.345.887.442V7.413a.49.49,0,0,1,0-.975.445.445,0,1,1,.887,0,.49.49,0,0,1,0,.975V8.829c.568-.1.887-.344.887-.442a.445.445,0,1,1,.887,0c0,.834-.953,1.462-2.217,1.462S8.483,9.221,8.483,8.388A.467.467,0,0,1,8.926,7.9Zm8.426,5.221c-.552.647-4.727.637-6.119.63h-.888c-1.428,0-5.723.008-6.3-.631v-.887A55,55,0,0,1,10.7,11.8a54.488,54.488,0,0,1,6.652.431Z" transform="translate(1.3 0.2)" fill="#5a33ff"/>
</svg>
