<?xml version="1.0" encoding="utf-8"?>
<!-- Generator: Adobe Illustrator 22.1.0, SVG Export Plug-In . SVG Version: 6.00 Build 0)  -->
<svg version="1.1" id="icon-facebook" height="40" width="40" xmlns="http://www.w3.org/2000/svg" xmlns:xlink="http://www.w3.org/1999/xlink" x="0px"
	 y="0px" viewBox="0 0 24 24" style="enable-background:new 0 0 24 24;" xml:space="preserve">
<style type="text/css">
	.st0{fill:none;}
	.st1{fill:#BBBBC3;}
	.st2{fill:#FFFFFF;}
</style>
<rect id="Rectangle_354" class="st0" width="24" height="24"/>
<circle class="st1" cx="12" cy="12.1" r="9.6"/>
<g>
	<path class="" d="M12,8.2c1.2,0,1.4,0,1.9,0c0.4,0,0.7,0.1,0.9,0.2c0.2,0.1,0.4,0.2,0.5,0.3c0.2,0.2,0.3,0.3,0.3,0.5
		c0.1,0.2,0.1,0.4,0.2,0.9c0,0.5,0,0.6,0,1.9s0,1.4,0,1.9c0,0.4-0.1,0.7-0.2,0.9c-0.1,0.2-0.2,0.4-0.3,0.5c-0.2,0.2-0.3,0.3-0.5,0.3
		c-0.2,0.1-0.4,0.1-0.9,0.2c-0.5,0-0.6,0-1.9,0s-1.4,0-1.9,0c-0.4,0-0.7-0.1-0.9-0.2c-0.2-0.1-0.4-0.2-0.5-0.3
		c-0.2-0.2-0.3-0.3-0.3-0.5c-0.1-0.2-0.1-0.4-0.2-0.9c0-0.5,0-0.6,0-1.9s0-1.4,0-1.9c0-0.4,0.1-0.7,0.2-0.9c0.1-0.2,0.2-0.4,0.3-0.5
		c0.2-0.2,0.3-0.3,0.5-0.3c0.2-0.1,0.4-0.1,0.9-0.2C10.6,8.2,10.8,8.2,12,8.2 M12,7.4c-1.2,0-1.4,0-1.9,0C9.6,7.5,9.3,7.5,9,7.7
		C8.7,7.8,8.4,7.9,8.2,8.2C7.9,8.4,7.8,8.7,7.7,9c-0.1,0.3-0.2,0.6-0.2,1.1c0,0.5,0,0.6,0,1.9s0,1.4,0,1.9c0,0.5,0.1,0.8,0.2,1.1
		c0.1,0.3,0.3,0.6,0.5,0.8c0.3,0.3,0.5,0.4,0.8,0.5c0.3,0.1,0.6,0.2,1.1,0.2c0.5,0,0.6,0,1.9,0s1.4,0,1.9,0c0.5,0,0.8-0.1,1.1-0.2
		c0.3-0.1,0.6-0.3,0.8-0.5c0.3-0.3,0.4-0.5,0.5-0.8c0.1-0.3,0.2-0.6,0.2-1.1c0-0.5,0-0.6,0-1.9s0-1.4,0-1.9c0-0.5-0.1-0.8-0.2-1.1
		c-0.1-0.3-0.3-0.6-0.5-0.8c-0.3-0.3-0.5-0.4-0.8-0.5c-0.3-0.1-0.6-0.2-1.1-0.2C13.4,7.4,13.2,7.4,12,7.4z M12,9.6
		c-1.3,0-2.4,1.1-2.4,2.4s1.1,2.4,2.4,2.4s2.4-1.1,2.4-2.4S13.3,9.6,12,9.6z M12,13.5c-0.8,0-1.5-0.7-1.5-1.5c0-0.8,0.7-1.5,1.5-1.5
		c0.8,0,1.5,0.7,1.5,1.5C13.5,12.8,12.8,13.5,12,13.5z M15,9.6c0,0.3-0.2,0.5-0.5,0.5c-0.3,0-0.5-0.2-0.5-0.5c0-0.3,0.2-0.5,0.5-0.5
		C14.7,9,15,9.3,15,9.6z"/>
</g>
</svg>
