<svg id="icon-saved" xmlns="http://www.w3.org/2000/svg" width="24" height="24" viewBox="0 0 24 24">
  <rect id="Rectangle_354" data-name="Rectangle 354" width="24" height="24" fill="none"/>
  <path id="Shape" d="M57.649,81.047a1.535,1.535,0,0,1-.836-.247,26.783,26.783,0,0,1-6.1-5.007A10.035,10.035,0,0,1,47.989,69a5.124,5.124,0,0,1,5.158-5,5.738,5.738,0,0,1,4.29,2.02.287.287,0,0,0,.421,0A5.735,5.735,0,0,1,62.149,64a5.125,5.125,0,0,1,5.158,5,10.038,10.038,0,0,1-2.722,6.792,26.783,26.783,0,0,1-6.1,5.007A1.535,1.535,0,0,1,57.649,81.047Z" transform="translate(-45.648 -59.924)" fill="#bbbbc3"/>
</svg>
