<?xml version="1.0" encoding="UTF-8"?><svg id="icon-support" xmlns="http://www.w3.org/2000/svg" viewBox="0 0 24 24"><defs><style>.cls-1{fill:none;}.cls-2{fill:#5a33ff;}</style></defs><rect id="Rectangle_380" class="cls-1" width="24" height="24"/><path id="Shape" class="cls-2" d="M12,2.4C6.7,2.4,2.4,6.7,2.4,12s4.3,9.6,9.6,9.6,9.6-4.3,9.6-9.6h0c0-5.3-4.3-9.6-9.6-9.6Zm-.3,15.2c-.55,0-1-.45-1-1s.45-1,1-1,1,.45,1,1-.45,1-1,1Zm1.67-5.1c-.57,.28-.93,.86-.92,1.5,0,.39-.31,.7-.7,.7s-.7-.31-.7-.7c0-1.1,.59-2.11,1.54-2.66,.96-.65,1.51-1.06,1.51-1.96-.03-.65-.45-1.22-1.07-1.42-.33-.12-.67-.17-1.02-.15-.5-.02-.99,.13-1.39,.43-.37,.27-.63,.67-.72,1.12-.02,.39-.35,.69-.73,.67-.39-.02-.68-.35-.67-.73,.1-.85,.55-1.63,1.24-2.14,.64-.5,1.44-.76,2.25-.74,.56-.02,1.12,.08,1.64,.29,1.11,.43,1.85,1.49,1.88,2.69,0,1.69-1.13,2.45-2.13,3.12Z"/></svg>