<svg id="icon-license" xmlns="http://www.w3.org/2000/svg" width="24" height="24" viewBox="0 0 24 24">
  <rect id="Rectangle_353" data-name="Rectangle 353" width="24" height="24" fill="none"/>
  <g id="Shape" transform="translate(2.656 2.656)">
    <path id="Path_196" data-name="Path 196" d="M417,112H416a0,0,0,0,0,0,0v12.678a1.335,1.335,0,1,0,2.67,0V113.672A1.672,1.672,0,0,0,417,112Z" transform="translate(-399.981 -108.663)" fill="#5a33ff"/>
    <path id="Path_197" data-name="Path 197" d="M46.684,48.019V33.669A1.669,1.669,0,0,0,45.015,32H33.669A1.669,1.669,0,0,0,32,33.669V48.352a2.336,2.336,0,0,0,2.336,2.336h14.3a.048.048,0,0,0,.013-.094,2.674,2.674,0,0,1-1.967-2.576ZM34.67,36a.667.667,0,0,1,.667-.667h2.67a.667.667,0,0,1,.667.667v2.67a.667.667,0,0,1-.667.667h-2.67a.667.667,0,0,1-.667-.667Zm8.677,11.347H35.356a.681.681,0,0,1-.685-.635.667.667,0,0,1,.667-.7h7.991a.681.681,0,0,1,.685.635.667.667,0,0,1-.667.7Zm0-2.67H35.356a.681.681,0,0,1-.685-.635.667.667,0,0,1,.667-.7h7.991a.681.681,0,0,1,.685.635.667.667,0,0,1-.667.7Zm0-2.67H35.356a.681.681,0,0,1-.685-.635.667.667,0,0,1,.667-.7h7.991a.681.681,0,0,1,.685.635.667.667,0,0,1-.667.7Zm0-2.67H40.7a.681.681,0,0,1-.685-.635.667.667,0,0,1,.667-.7h2.651a.681.681,0,0,1,.685.635.667.667,0,0,1-.667.7Zm0-2.67H40.7a.681.681,0,0,1-.685-.635.667.667,0,0,1,.667-.7h2.651a.681.681,0,0,1,.685.635.667.667,0,0,1-.667.7Z" transform="translate(-32 -32)" fill="#5a33ff"/>
  </g>
</svg>
