<svg id="icon-request" xmlns="http://www.w3.org/2000/svg" width="40" height="40" viewBox="0 0 24 24">
  <rect id="Rectangle_375" data-name="Rectangle 375" width="24" height="24" fill="none"/>
  <path id="Shape" d="M50.906,32.323a1.029,1.029,0,0,0-1.093-.234L32.668,38.578h0a1.029,1.029,0,0,0,.043,1.935l.018.006,5.884,2.513a.686.686,0,0,0,.666-.154l9.444-8.8a.3.3,0,1,1,.429.429l-8.8,9.44a.686.686,0,0,0-.154.666L42.708,50.5l.008.024a1.008,1.008,0,0,0,.9.7h.043a1.056,1.056,0,0,0,.986-.663l6.488-17.14A1.029,1.029,0,0,0,50.906,32.323Z" transform="translate(-29.605 -29.621)" fill="#5a33ff"/>
</svg>
